
        <svg xmlns="http://www.w3.org/2000/svg" xmlns:xlink="http://www.w3.org/1999/xlink" version="1.1" width="3187.5" height="817.5473381328168" viewBox="0 0 3187.5 817.5473381328168">
			
			<g transform="scale(9.375) translate(10, 10)">
				<defs id="SvgjsDefs1253"/><g id="SvgjsG1254" featureKey="symbolFeature-0" transform="matrix(4.3442605767517,0,0,4.3442605767517,-0.0009549637441075008,0.000030926920332657165)" fill="#fff"><defs xmlns="http://www.w3.org/2000/svg"/><g xmlns="http://www.w3.org/2000/svg"><path class="fil0" d="M7.14313 0.00980004c0.508902,-0.0912004 -7.88633,0.450202 -7.08953,1.76991 0.590303,0.977904 11.608,2.45511 7.64983,4.29002 -3.95812,1.83491 -5.17312,3.50032 0.0109,4.67752 7.84043,1.78061 3.65872,2.68671 6.91843,4.11622 3.66642,1.60791 8.52654,-0.299101 8.38324,-2.03561 -0.431902,-5.23342 -16.7815,-3.87372 -13.8121,-5.66072 10.0851,-6.06913 -17.7562,-4.34462 -2.06081,-7.15733z" style="fill: #aea1ea;"/></g></g><g id="SvgjsG1255" featureKey="nameFeature-0" transform="matrix(0.6587615150831317,0,0,0.6587615150831317,118.41897277215904,17.438737797618)" fill="#fff"><path d="M28.2 10.2 c0.04 -0.08 0.24 -0.2 0.32 -0.2 l2.56 0 l0 30 l-1.64 0 c-0.24 0 -0.44 -0.2 -0.44 -0.44 l0 -26.88 s-9.2 16.44 -10.76 19.16 c-0.12 0.2 -0.4 0.36 -0.64 0.36 l-1.72 0 c-0.24 0 -0.56 -0.16 -0.68 -0.36 l-10.72 -19.16 l0 26.88 c0 0.24 -0.2 0.44 -0.44 0.44 l-1.64 0 l0 -30 l2.56 0 c0.08 0 0.28 0.12 0.32 0.2 l11.48 20.2 z M42.24 11.719999999999999 c-2.32 0 -4.2 1.88 -4.2 4.2 l0 8.72 c0.2 -0.32 0.64 -0.56 1.12 -0.56 l15.36 0 l0 1.32 c0 0.28 -0.2 0.48 -0.44 0.48 l-16.04 0 l0 8.2 c0 2.32 1.88 4.2 4.2 4.2 l12.92 0 c0.28 0 0.48 0.2 0.48 0.48 l0 1.24 l-13.4 0 c-3.48 0 -6.28 -2.8 -6.28 -6.28 l0 -17.48 c0 -3.44 2.8 -6.28 6.28 -6.28 l13.4 0 l0 1.28 c0 0.28 -0.2 0.48 -0.48 0.48 l-12.92 0 z M67.6 11.120000000000001 c0.24 -0.64 0.96 -1.16 1.64 -1.16 l5.36 0 l10.6 30.04 l-1.56 0 c-0.28 0 -0.56 -0.2 -0.64 -0.44 l-2.88 -8.32 l-17.6 0 l-2.88 8.32 c-0.08 0.24 -0.36 0.44 -0.64 0.44 l-1.56 0 z M69.16 12.120000000000001 l-6.04 17.4 l16.4 0 l-6.2 -17.8 l-3.56 0 c-0.28 0 -0.52 0.16 -0.6 0.4 z M108.32 10.440000000000001 c0 -0.24 0.2 -0.44 0.44 -0.44 l1.64 0 l0 30 l-2.32 0 c-0.12 0 -0.4 0 -0.64 -0.4 l-14.72 -26.68 c-0.4 -0.72 -1.2 -1.2 -1.96 -1.2 l-0.36 0 l0 27.84 c0 0.24 -0.2 0.44 -0.44 0.44 l-1.64 0 l0 -29.6 c0 -0.24 0.2 -0.44 0.44 -0.44 l2.64 0 c1 0 2.32 0.8 2.76 1.68 l14.16 25.8 l0 -27 z M115.32000000000001 38.76 l0 -27.56 c0 -0.68 0.56 -1.24 1.24 -1.24 l13.96 0 c3.44 0 6.28 2.84 6.28 6.28 l0 17.48 c0 3.48 -2.84 6.28 -6.28 6.28 l-13.96 0 c-0.68 0 -1.24 -0.56 -1.24 -1.24 z M117.88000000000001 38.28 l12.64 0 c2.28 0 4.2 -1.88 4.2 -4.2 l0 -18.16 c0 -2.32 -1.92 -4.2 -4.2 -4.2 l-12.64 0 c-0.28 0 -0.48 0.2 -0.48 0.44 l0 25.64 c0 0.28 0.2 0.48 0.48 0.48 z M147.84 11.719999999999999 c-2.32 0 -4.2 1.88 -4.2 4.2 l0 8.72 c0.2 -0.32 0.64 -0.56 1.12 -0.56 l15.36 0 l0 1.32 c0 0.28 -0.2 0.48 -0.44 0.48 l-16.04 0 l0 8.2 c0 2.32 1.88 4.2 4.2 4.2 l12.92 0 c0.28 0 0.48 0.2 0.48 0.48 l0 1.24 l-13.4 0 c-3.48 0 -6.28 -2.8 -6.28 -6.28 l0 -17.48 c0 -3.44 2.8 -6.28 6.28 -6.28 l13.4 0 l0 1.28 c0 0.28 -0.2 0.48 -0.48 0.48 l-12.92 0 z M180.32 25.92 l6.24 14.08 l-1.84 0 c-0.24 0 -0.52 -0.16 -0.6 -0.4 l-6.12 -13.76 l-9.88 0 c-0.56 0 -1 -0.28 -1.12 -0.64 l0 14.36 c0 0.24 -0.2 0.44 -0.44 0.44 l-1.64 0 l0 -28.84 c0 -0.64 0.52 -1.16 1.16 -1.16 l13.72 0 c3.44 0 6.28 2.8 6.28 6.28 l0 3.48 c0 2.84 -2.52 6.16 -5.76 6.16 z M167.71999999999997 24.119999999999997 l12.08 0 c2.32 0 4.2 -1.88 4.2 -4.2 l0 -4 c0 -2.32 -1.88 -4.2 -4.2 -4.2 l-12.36 0 c-0.24 0 -0.44 0.2 -0.44 0.44 l0 11.28 c0 0.36 0.32 0.68 0.72 0.68 z M205.48 15.920000000000002 l0 4.8 c0 0.24 0.2 0.52 0.4 0.56 l18 5.96 c0.6 0.2 1.12 0.88 1.12 1.52 l0 4.96 c0 3.48 -2.84 6.28 -6.28 6.28 l-15.68 0 l0 -1.28 c0 -0.24 0.2 -0.44 0.44 -0.44 l15.24 0 c2.32 0 4.2 -1.88 4.2 -4.2 l0 -4.84 c0 -0.24 -0.2 -0.48 -0.44 -0.56 l-18 -5.96 c-0.6 -0.2 -1.08 -0.88 -1.08 -1.52 l0 -4.92 c0 -3.48 2.8 -6.28 6.28 -6.28 l14.44 0 l0 1.28 c0 0.24 -0.2 0.44 -0.44 0.44 l-14 0 c-2.32 0 -4.2 1.88 -4.2 4.2 z M229.32 33.92 l0 -23.92 l1.64 0 c0.24 0 0.44 0.2 0.44 0.44 l0 23.8 c0 2.32 1.88 4.2 4.2 4.2 l9.6 0 c2.32 0 4.2 -1.88 4.2 -4.2 l0 -23.8 c0 -0.24 0.2 -0.44 0.44 -0.44 l1.64 0 l0 23.92 c0 3.44 -2.8 6.28 -6.28 6.28 l-9.6 0 c-3.48 0 -6.28 -2.84 -6.28 -6.28 z M256.56 39.56 l0 -29.6 l1.64 0 c0.24 0 0.44 0.2 0.44 0.44 l0 29.6 l-1.64 0 c-0.24 0 -0.44 -0.2 -0.44 -0.44 z M271.52 11.719999999999999 l-9.56 0 l0 -1.32 c0 -0.24 0.2 -0.4 0.44 -0.4 l20.84 0 l0 1.28 c0 0.24 -0.2 0.44 -0.44 0.44 l-9.2 0 l0 27.84 c0 0.24 -0.2 0.44 -0.44 0.44 l-1.64 0 l0 -28.28 z M292.6 11.719999999999999 c-2.32 0 -4.2 1.88 -4.2 4.2 l0 8.72 c0.2 -0.32 0.64 -0.56 1.12 -0.56 l15.36 0 l0 1.32 c0 0.28 -0.2 0.48 -0.44 0.48 l-16.04 0 l0 8.2 c0 2.32 1.88 4.2 4.2 4.2 l12.92 0 c0.28 0 0.48 0.2 0.48 0.48 l0 1.24 l-13.4 0 c-3.48 0 -6.28 -2.8 -6.28 -6.28 l0 -17.48 c0 -3.44 2.8 -6.28 6.28 -6.28 l13.4 0 l0 1.28 c0 0.28 -0.2 0.48 -0.48 0.48 l-12.92 0 z"/></g>
			</g>
		</svg>
	